<svg width="806" height="453" viewBox="0 0 806 453" fill="none" xmlns="http://www.w3.org/2000/svg">
<mask id="mask0_1111_2840" style="mask-type:alpha" maskUnits="userSpaceOnUse" x="0" y="0" width="806" height="453">
<rect width="806" height="453" rx="5" fill="#151515"/>
</mask>
<g mask="url(#mask0_1111_2840)">
<rect width="806" height="453" rx="5" fill="#151515"/>
<rect width="2804.88" height="453" fill="#CA2C2A"/>
<path opacity="0.3" d="M3240.12 -109.716V278C3240.12 311.137 3213.26 338 3180.12 338H631.675C625.765 338 619.889 337.127 614.235 335.409L139.279 191.125C114 183.446 96.719 160.135 96.719 133.716V-254C96.719 -287.137 123.582 -314 156.719 -314H2705.16C2711.07 -314 2716.95 -313.127 2722.6 -311.409L3197.56 -167.125C3222.84 -159.446 3240.12 -136.135 3240.12 -109.716Z" stroke="white"/>
<path opacity="0.15" d="M660.92 448.185V660C660.92 693.137 634.057 720 600.92 720H-1013.34C-1019.24 720 -1025.11 719.128 -1030.76 717.413L-1317.96 630.227C-1343.24 622.552 -1360.53 599.238 -1360.53 572.815V361C-1360.53 327.863 -1333.67 301 -1300.53 301H313.727C319.632 301 325.506 301.872 331.156 303.587L618.349 390.773C643.633 398.448 660.92 421.762 660.92 448.185Z" fill="white"/>
<path opacity="0.3" d="M1396.49 436.744V712C1396.49 745.413 1369.41 772.5 1335.99 772.5H-611.118C-617.085 772.5 -623.02 771.617 -628.729 769.88L-982.843 662.136C-1008.32 654.384 -1025.73 630.886 -1025.73 604.256V329C-1025.73 295.587 -998.645 268.5 -965.232 268.5H981.878C987.846 268.5 993.78 269.383 999.489 271.12L1353.6 378.864C1379.08 386.616 1396.49 410.114 1396.49 436.744Z" stroke="white"/>
</g>
</svg>
