<svg fill="none" height="453" viewBox="0 0 806 453" width="806" xmlns="http://www.w3.org/2000/svg" xmlns:xlink="http://www.w3.org/1999/xlink"><mask id="a" height="453" maskUnits="userSpaceOnUse" width="806" x="0" y="0"><rect fill="#ebebeb" height="453" rx="5" width="806"/></mask><g mask="url(#a)"><rect fill="#f3f3f3" height="453" rx="5" width="806"/><path d="m1005-128.977v406.977c0 33.137-26.863 60-60 60h-727.347c-15.697 0-30.769-6.151-41.983-17.134l-127.6526-125.024c-11.5233-11.286-18.0174-26.736-18.0174-42.865v-406.977c0-33.137 26.8629-60 59.9999-60h727.3471c15.697 0 30.769 6.151 41.983 17.134l127.653 125.024c11.523 11.286 18.017 26.736 18.017 42.865z" opacity=".15" stroke="#151515"/><path d="m205 428.927v231.073c0 33.137-26.863 60-60 60h-437.597c-15.689 0-30.755-6.146-41.968-17.12l-69.403-67.928c-11.532-11.287-18.032-26.743-18.032-42.879v-231.073c0-33.137 26.863-60 60-60h437.5966c15.6897 0 30.7554 6.146 41.9684 17.12l69.403 67.928c11.532 11.287 18.032 26.743 18.032 42.879z" fill="#151515" opacity=".05"/><g stroke="#151515"><path d="m1413.76-47.872v407.372c0 33.137-26.86 60-60 60h-727.129c-15.708 0-30.788-6.159-42.005-17.156l-127.63-125.128c-11.51-11.284-17.996-26.725-17.996-42.844v-407.372c0-33.137 26.863-60 60-60h727.13c15.71 0 30.79 6.159 42.01 17.156l127.63 125.1276c11.51 11.2844 17.99 26.7254 17.99 42.8444z" opacity=".3"/><path d="m433.5 417.476v294.524c0 33.413-27.087 60.5-60.5 60.5h-540.806c-15.844 0-31.056-6.215-42.366-17.311l-90.195-88.475c-11.598-11.378-18.133-26.942-18.133-43.19v-294.524c0-33.413 27.087-60.5 60.5-60.5h540.806c15.844 0 31.056 6.215 42.366 17.311l90.195 88.475c11.598 11.378 18.133 26.942 18.133 43.19z" opacity=".15"/></g></g></svg>